<?xml version="1.0" encoding="UTF-8"?>
<svg id="uuid-37d58697-d0ee-45d7-b384-26d75574758d" data-name="Layer 1" xmlns="http://www.w3.org/2000/svg" viewBox="0 0 752.99 980.82">
  <path d="M390.6.82c205.19,4.4,372.61,188.91,361.9,393-15.33,239.98-248.93,399.79-373.9,587h-4C253.46,798.75,38.14,652.8,3.84,424.18-30.04,202.49,165.55-15.02,390.6.82ZM376.59,430.82c3.22,1.38,86.89,200.81,93.26,197.86,7.16-1.14,29.26-29.04,36.78-34.31,3.11-1.36-26.95-269.06-26.05-271.01,30.27-33.9,66.37-63.57,93.78-100.24,23.22-41.78,5.52-75.38-44.31-56.32-43.25,22.88-72.1,66.41-109.06,97.79-2.99.94-267.4-29.28-269.87-25.82-5.2,8.26-36.9,31.06-34.55,39.59,63.39,34.63,133.12,57.3,196.63,91.44-14.93,24.57-42.58,42.57-59.54,66.53-3.15,3-82.14-10.1-86.05-6.07-3.23,5.6-26.91,25.86-26.94,30.07,2.19,4.72,8.78,7.28,13.32,9.67,26.69,14.02,56.31,24.65,83.39,38.09,14.86,30.9,27.39,66.5,44.89,95.64,7.96,4.18,31.12-24.71,34.38-29.46-2.34-28.38-7.21-56.75-6.81-85.24,24.57-15.68,41.82-44.3,66.76-58.2Z"/>
</svg>