<?xml version="1.0" encoding="UTF-8"?>
<svg id="Layer_1" data-name="Layer 1" xmlns="http://www.w3.org/2000/svg" viewBox="0 0 752 980">
  <defs>
    <style>
      .cls-1 {
        fill: #fff;
      }
    </style>
  </defs>
  <path class="cls-1" d="M752,393v587h-373.9c9.71-9.49,16.19-22.23,24.18-33.31,117.98-163.72,319.1-314.25,346.58-524.33l3.14-29.36Z"/>
  <path class="cls-1" d="M374.1,980H.19V393l3.14,30.36c24.01,184.19,181.69,320.39,293.76,456.17,24.99,30.28,46.53,59.86,69.19,91.79,2.28,3.21,4.57,6.35,7.81,8.68Z"/>
  <path class="cls-1" d="M390.09,0h361.91v356l-4.17-35.33C723.62,156.45,592.18,25.23,427.46,3.12l-37.37-3.12Z"/>
  <path class="cls-1" d="M348.1,0C162.59,10.85,9.34,171.76.19,356V0h347.91Z"/>
  <g>
    <path d="M390.09,0l37.37,3.12c164.72,22.11,296.16,153.33,320.37,317.54l4.17,35.33v37l-3.14,29.36c-27.49,210.07-228.6,360.61-346.58,524.33-7.99,11.09-14.47,23.83-24.18,33.31h-4c-3.25-2.33-5.53-5.47-7.81-8.68-22.66-31.93-44.2-61.51-69.19-91.79C185.02,743.74,27.35,607.55,3.34,423.36l-3.14-30.36c.45-12.28-.61-24.74,0-37C9.34,171.76,162.59,10.85,348.1,0h41.99ZM376.08,430.01l89.95,196.54c.89,1.21,1.82,1.57,3.31,1.33,7.16-1.14,29.25-29.04,36.77-34.32l.92-2.07-26.97-268.94c30.27-33.9,66.37-63.57,93.78-100.24,23.22-41.78,5.52-75.38-44.31-56.32-15.8,6.04-28.36,19.08-40.48,30.51-23.26,21.93-45.07,45.58-68.58,67.28l-266.87-26.81-3,.99c-5.33,7.39-34.35,30.88-35.03,37.99l.48,1.6c5.01,3.19,10.44,5.7,15.75,8.32,55.74,27.49,113.99,50.07,169.99,76.97,3.69,1.77,7.77,3.48,10.89,6.15.6,1.25-3.09,5.84-4.06,7.04-9.57,11.82-23.39,23.73-34.02,34.97-7.43,7.86-14.51,16.24-21.47,24.52l-6.5.48-76.95-7.99-2.6,1.44c-3.23,5.6-26.91,25.86-26.94,30.07,2.19,4.72,8.78,7.28,13.32,9.67,26.69,14.02,56.31,24.65,83.39,38.09,11.4,24.53,21.58,49.75,33.4,74.09,1.77,3.64,9.38,20.13,11.49,21.55,3.61,2.44,9.52-3.02,12.38-5.4,3.23-2.69,21.6-21.52,22-24.07-2.34-28.38-7.21-56.75-6.81-85.24,21.13-14.53,37.15-35.38,56.76-51.71,1.74-1.45,8.36-7.61,10-6.48Z"/>
    <path class="cls-1" d="M376.08,430.01c-1.64-1.13-8.26,5.03-10,6.48-19.62,16.33-35.64,37.19-56.76,51.71-.4,28.5,4.47,56.87,6.81,85.24-.4,2.55-18.78,21.38-22,24.07-2.85,2.38-8.77,7.83-12.38,5.4-2.11-1.42-9.72-17.91-11.49-21.55-11.83-24.33-22.01-49.56-33.4-74.09-27.08-13.44-56.7-24.07-83.39-38.09-4.54-2.39-11.13-4.95-13.32-9.67.03-4.22,23.71-24.48,26.94-30.07l2.6-1.44,76.95,7.99,6.5-.48c6.96-8.28,14.04-16.66,21.47-24.52,10.63-11.25,24.44-23.16,34.02-34.97.97-1.2,4.65-5.78,4.06-7.04-3.12-2.68-7.2-4.38-10.89-6.15-56.01-26.9-114.25-49.47-169.99-76.97-5.31-2.62-10.74-5.14-15.75-8.32l-.48-1.6c.67-7.1,29.7-30.6,35.03-37.99l3-.99,266.87,26.81c23.51-21.7,45.32-45.35,68.58-67.28,12.13-11.43,24.68-24.47,40.48-30.51,49.83-19.05,67.53,14.54,44.31,56.32-27.41,36.67-63.51,66.34-93.78,100.24l26.97,268.94-.92,2.07c-7.52,5.28-29.62,33.18-36.77,34.32-1.49.24-2.42-.12-3.31-1.33l-89.95-196.54Z"/>
  </g>
</svg>